HIERARCHY
ROOT Hips
{
	OFFSET 0.00000 0.00000 0.00000
	CHANNELS 6 Xposition Yposition Zposition Zrotation Yrotation Xrotation 
	JOINT LHipJoint
	{
		OFFSET 0 0 0
		CHANNELS 3 Zrotation Yrotation Xrotation
		JOINT LeftUpLeg
		{
			OFFSET 1.70593 -1.62653 0.87602
			CHANNELS 3 Zrotation Yrotation Xrotation
			JOINT LeftLeg
			{
				OFFSET 2.32330 -6.38322 0.00000
				CHANNELS 3 Zrotation Yrotation Xrotation
				JOINT LeftFoot
				{
					OFFSET 2.45016 -6.73177 0.00000
					CHANNELS 3 Zrotation Yrotation Xrotation
					JOINT LeftToeBase
					{
						OFFSET 0.13029 -0.35798 1.96980
						CHANNELS 3 Zrotation Yrotation Xrotation
						End Site
						{
							OFFSET 0.00000 -0.00000 1.01270
						}
					}
				}
			}
		}
	}
	JOINT RHipJoint
	{
		OFFSET 0 0 0
		CHANNELS 3 Zrotation Yrotation Xrotation
		JOINT RightUpLeg
		{
			OFFSET -1.80599 -1.62652 0.87602
			CHANNELS 3 Zrotation Yrotation Xrotation
			JOINT RightLeg
			{
				OFFSET -2.45375 -6.74162 0.00000
				CHANNELS 3 Zrotation Yrotation Xrotation
				JOINT RightFoot
				{
					OFFSET -2.45828 -6.75406 0.00000
					CHANNELS 3 Zrotation Yrotation Xrotation
					JOINT RightToeBase
					{
						OFFSET -0.13801 -0.37917 1.88456
						CHANNELS 3 Zrotation Yrotation Xrotation
						End Site
						{
							OFFSET -0.00000 -0.00000 0.97281
						}
					}
				}
			}
		}
	}
	JOINT LowerBack
	{
		OFFSET 0 0 0
		CHANNELS 3 Zrotation Yrotation Xrotation
		JOINT Spine
		{
			OFFSET 0.01003 2.00576 -0.14267
			CHANNELS 3 Zrotation Yrotation Xrotation
			JOINT Spine1
			{
				OFFSET 0.00908 2.01191 0.01660
				CHANNELS 3 Zrotation Yrotation Xrotation
				JOINT Neck
				{
					OFFSET 0 0 0
					CHANNELS 3 Zrotation Yrotation Xrotation
					JOINT Neck1
					{
						OFFSET -0.05849 1.60301 0.18934
						CHANNELS 3 Zrotation Yrotation Xrotation
						JOINT Head
						{
							OFFSET 0.01775 1.59435 -0.07960
							CHANNELS 3 Zrotation Yrotation Xrotation
							End Site
							{
								OFFSET 0.01210 1.70732 -0.05248
							}
						}
					}
				}
				JOINT LeftShoulder
				{
					OFFSET 0 0 0
					CHANNELS 3 Zrotation Yrotation Xrotation
					JOINT LeftArm
					{
						OFFSET 3.15315 1.26460 0.30667
						CHANNELS 3 Zrotation Yrotation Xrotation
						JOINT LeftForeArm
						{
							OFFSET 4.97694 -0.00000 -0.00000
							CHANNELS 3 Zrotation Yrotation Xrotation
							JOINT LeftHand
							{
								OFFSET 3.14391 -0.00000 -0.00000
								CHANNELS 3 Zrotation Yrotation Xrotation
								JOINT LeftFingerBase
								{
									OFFSET 0 0 0
									CHANNELS 3 Zrotation Yrotation Xrotation
									JOINT LeftHandIndex1
									{
										OFFSET 0.59358 -0.00000 -0.00000
										CHANNELS 3 Zrotation Yrotation Xrotation
										End Site
										{
											OFFSET 0.47856 -0.00000 -0.00000
										}
									}
								}
								JOINT LThumb
								{
									OFFSET 0 0 0
									CHANNELS 3 Zrotation Yrotation Xrotation
									End Site
									{
										OFFSET 0.48587 -0.00000 0.48587
									}
								}
							}
						}
					}
				}
				JOINT RightShoulder
				{
					OFFSET 0 0 0
					CHANNELS 3 Zrotation Yrotation Xrotation
					JOINT RightArm
					{
						OFFSET -3.25568 1.35581 0.18982
						CHANNELS 3 Zrotation Yrotation Xrotation
						JOINT RightForeArm
						{
							OFFSET -4.90473 -0.00000 0.00000
							CHANNELS 3 Zrotation Yrotation Xrotation
							JOINT RightHand
							{
								OFFSET -3.21621 0.00006 -0.00004
								CHANNELS 3 Zrotation Yrotation Xrotation
								JOINT RightFingerBase
								{
									OFFSET 0 0 0
									CHANNELS 3 Zrotation Yrotation Xrotation
									JOINT RightHandIndex1
									{
										OFFSET -0.62353 -0.00000 -0.00000
										CHANNELS 3 Zrotation Yrotation Xrotation
										End Site
										{
											OFFSET -0.50270 -0.00000 -0.00000
										}
									}
								}
								JOINT RThumb
								{
									OFFSET 0 0 0
									CHANNELS 3 Zrotation Yrotation Xrotation
									End Site
									{
										OFFSET -0.51038 -0.00000 0.51038
									}
								}
							}
						}
					}
				}
			}
		}
	}
}
MOTION
Frames: 15
Frame Time: .0083333
7.6252 15.3618 -36.1658 0 0 0 0 0 0 -21 0 0 0 0 0 0 0 0 0 0 0 0 0 0 21 0 0 0 0 0 0 0 0 0 0 0 0 0 0 0 0 0 0 0 0 0 0 -16 0 0 21 0 0 11 0 0 0 -8 0 0 0 0 0 0 0 0 0 0 0 0 0 0 0 0 0 0 0 0 8 0 0 0 0 0 0 0 0 0 0 0 0 0 0 0 0 0
7.6252 15.3618 -36.1658 2.3765 -5.1921 6.9727 0.0000 0.0000 0.0000 -27.7888 -2.0387 -10.2166 2.3766 9.6101 27.7230 0.6255 -12.9916 -15.6776 0.0286 1.0915 3.0007 0.0000 0.0000 0.0000 17.4600 14.4533 -35.9667 -7.0713 -15.3916 49.1435 -1.2929 8.6346 -20.3647 -0.3411 3.7530 -10.3828 -3.5433 1.0901 -0.5005 -0.0791 1.4044 -3.3708 1.8685 0.8005 -3.2727 -1.8868 0.7874 -7.6214 3.2642 0.7961 16.3275 1.4081 0.5231 6.1767 0.0000 -0.0000 0.0000 -86.0950 -14.2114 45.0280 21.2342 -32.1007 -6.1739 -0.0000 0.0000 -14.8153 27.9845 -16.3764 -8.5205 -7.1250 0.0000 -0.0000 0.1333 11.5734 -0.1039 0.0000 -0.0000 0.0000 89.9111 -22.9640 13.2263 -12.4488 20.4743 -2.2568 0.0000 0.0000 10.3048 -23.0623 -33.5077 13.2267 7.1250 -0.0000 -0.0000 12.3284 -65.3207 -6.0971
7.6313 15.3594 -35.9961 2.3301 -4.6431 6.8451 0.0000 0.0000 0.0000 -27.7690 -1.7946 -8.9026 2.2135 9.2972 26.7296 0.5164 -13.5911 -14.9287 0.0950 1.9875 5.4712 0.0000 0.0000 0.0000 17.2381 14.8196 -36.6807 -6.7476 -15.1156 47.9131 -1.2367 8.6363 -19.9229 -0.3566 3.8362 -10.6163 -3.3351 0.8192 -0.5085 -0.0028 1.0495 -3.2815 1.8410 0.6156 -3.1510 -1.5214 0.9200 -7.7234 2.9473 0.9752 16.5271 1.2628 0.6085 6.2573 0.0000 0.0000 0.0000 -85.9107 -15.1387 45.7724 21.8411 -32.7970 -6.4996 -0.0000 0.0000 -14.9153 27.7057 -16.2265 -8.3481 -7.1250 0.0000 -0.0000 -0.0359 11.7831 0.0278 0.0000 0.0000 0.0000 89.9440 -23.0086 12.4698 -12.3903 20.3874 -2.2364 0.0000 0.0000 11.1089 -22.5285 -33.5129 12.8994 7.1250 -0.0000 -0.0000 12.9778 -65.1754 -6.3795
7.6349 15.3547 -35.8258 2.5678 -4.0784 6.7316 0.0000 0.0000 0.0000 -28.0165 -1.3876 -7.7018 2.0650 9.0002 25.7960 0.4317 -14.1881 -14.4144 0.1357 2.3743 6.5411 0.0000 0.0000 0.0000 16.7003 15.0586 -37.4814 -6.4185 -14.8220 46.6391 -1.1624 8.4583 -19.3119 -0.4438 4.2744 -11.8499 -3.5408 0.5262 -0.4012 0.0915 0.6534 -3.2973 2.0619 0.4262 -3.2098 -1.8348 0.9765 -7.6936 3.1063 1.0669 16.6971 1.3738 0.6461 6.3003 -0.0000 -0.0000 0.0000 -85.8751 -15.9118 46.3425 22.3715 -33.3943 -6.7892 -0.0000 0.0000 -15.0992 27.7861 -16.6169 -8.5692 -7.1250 0.0000 -0.0000 -0.0228 11.3390 0.0179 -0.0000 -0.0000 0.0000 89.7603 -23.3010 12.4768 -12.5947 20.6905 -2.3081 0.0000 0.0000 10.2524 -20.7579 -32.8200 11.6088 7.1250 -0.0000 -0.0000 14.4885 -64.0129 -6.7447
7.6369 15.3553 -35.6552 2.9461 -3.6242 6.6295 0.0000 0.0000 0.0000 -28.4062 -0.8310 -6.6931 1.9446 8.7497 25.0154 0.4307 -14.3449 -14.4780 0.0502 1.4463 3.9778 0.0000 0.0000 0.0000 15.9995 15.3201 -38.2186 -6.0584 -14.4847 45.2157 -1.0506 8.1033 -18.3520 -0.4343 4.2289 -11.7215 -3.8686 0.3744 -0.3486 0.0496 0.4423 -3.3071 2.2075 0.3301 -3.2403 -2.1377 0.9306 -7.4737 3.3257 1.0103 16.5209 1.4859 0.6154 6.2040 0.0000 -0.0000 0.0000 -85.6257 -16.7205 47.3588 22.9514 -34.0356 -7.1111 -0.0000 0.0000 -15.7835 27.9772 -17.0790 -8.8671 -7.1250 0.0000 -0.0000 0.0542 10.7971 -0.0431 0.0000 -0.0000 0.0000 89.8084 -23.6016 11.8707 -12.7127 20.8648 -2.3500 0.0000 0.0000 9.8565 -20.2964 -33.6638 11.5856 7.1250 -0.0000 -0.0000 15.7583 -64.7001 -7.6016
7.6350 15.3574 -35.4858 2.9997 -3.2513 6.5454 0.0000 0.0000 0.0000 -28.4031 -0.2612 -5.5526 1.7471 8.3181 23.6846 0.3426 -14.4212 -13.6941 0.0520 1.4718 4.0481 0.0000 0.0000 0.0000 15.6227 15.7875 -38.9275 -5.7494 -14.1811 43.9676 -0.9561 7.5558 -17.4861 -0.3777 3.9469 -10.9273 -3.8927 0.2664 -0.4263 0.0534 0.3037 -3.2017 2.2291 0.2571 -3.0780 -1.9832 0.8222 -7.2143 3.1333 0.8773 16.0451 1.3827 0.5430 6.0149 -0.0000 -0.0000 0.0000 -85.1779 -17.5614 48.5334 23.7396 -34.8877 -7.5571 -0.0000 0.0000 -16.5797 27.8689 -17.2485 -8.9110 -7.1250 0.0000 -0.0000 -0.0350 10.6277 0.0279 -0.0000 -0.0000 0.0000 90.0544 -23.8406 12.3238 -12.6599 20.7868 -2.3312 0.0000 0.0000 8.1882 -22.8871 -32.1747 12.6693 7.1250 -0.0000 -0.0000 11.4710 -63.9563 -5.3042
7.6307 15.3432 -35.3186 2.0988 -2.7252 6.7607 0.0000 0.0000 0.0000 -27.2558 -0.2278 -4.7680 1.5853 7.9429 22.5408 -0.0021 -15.6924 -11.0003 0.7302 5.4597 15.2246 0.0000 0.0000 0.0000 16.2129 16.4492 -39.7457 -5.4037 -13.8244 42.5387 -0.8997 6.9215 -16.9349 -0.2765 3.3822 -9.3448 -3.0328 0.0284 -0.6579 0.4403 0.0149 -3.2142 2.1521 0.0934 -2.9369 -1.7515 0.9230 -7.2336 2.9975 1.0038 16.1221 1.3112 0.6081 6.0415 0.0000 0.0000 0.0000 -85.0544 -18.1147 48.9184 24.6425 -35.8363 -8.0796 -0.0000 0.0000 -16.6849 27.7674 -17.1859 -8.8426 -7.1250 0.0000 -0.0000 -0.0948 10.7137 0.0755 0.0000 0.0000 0.0000 89.8767 -24.0314 12.9784 -12.5112 20.5669 -2.2787 0.0000 0.0000 7.0141 -24.0390 -29.7621 12.4848 7.1250 -0.0000 -0.0000 8.4888 -61.8345 -3.4906
7.6438 15.2962 -35.1043 3.1830 -2.3340 6.1384 0.0000 0.0000 0.0000 -28.4096 0.2736 -2.9098 1.4169 7.5281 21.2895 -0.5035 -17.5910 -6.8495 2.7737 10.3193 30.0171 0.0000 0.0000 0.0000 14.9476 15.8880 -40.0700 -5.1243 -13.5225 41.3572 -0.8015 7.3057 -16.0236 -0.1742 2.6885 -7.4126 -3.8541 -0.1916 -0.7845 0.1890 -0.2826 -2.9431 2.3584 -0.0484 -2.5680 -2.0128 0.9017 -6.9345 2.8872 1.0295 15.7540 1.3156 0.5945 5.8724 0.0000 0.0000 0.0000 -85.2667 -18.6526 48.8495 25.3325 -36.5419 -8.4871 -0.0000 0.0000 -16.1687 27.6988 -17.1085 -8.7794 -7.1250 0.0000 -0.0000 -0.1317 10.8103 0.1046 0.0000 0.0000 0.0000 89.6714 -24.2060 12.8749 -12.6493 20.7713 -2.3275 0.0000 0.0000 6.8284 -22.5807 -30.8017 12.0216 7.1250 -0.0000 -0.0000 10.8459 -62.5080 -4.6434
7.6387 15.3089 -34.9289 3.7427 -2.1392 5.9958 0.0000 0.0000 0.0000 -28.9797 2.2619 -1.5519 1.2564 7.1059 20.0296 -0.0490 -16.0514 -10.7620 0.3294 3.6886 10.2022 0.0000 0.0000 0.0000 14.1072 16.1608 -40.5510 -4.7906 -13.1440 39.9101 -0.6918 7.0898 -14.9046 -0.1079 2.1184 -5.8329 -4.4261 -0.2395 -0.9287 0.0545 -0.3433 -2.8256 2.5404 -0.0735 -2.3613 -1.9379 0.9056 -6.9307 3.0381 0.9998 15.8123 1.3493 0.5957 5.8901 -0.0000 -0.0000 0.0000 -85.4074 -19.4560 48.9993 25.8745 -37.0845 -8.8118 -0.0000 0.0000 -15.7374 27.3707 -16.8813 -8.5496 -7.1250 0.0000 -0.0000 -0.3239 11.1135 0.2554 -0.0000 -0.0000 0.0000 89.8493 -24.3287 12.2898 -12.8058 21.0021 -2.3832 0.0000 0.0000 6.9422 -21.6974 -31.6662 11.7985 7.1250 -0.0000 -0.0000 12.4860 -63.1354 -5.5407
7.6303 15.2886 -34.7728 3.9901 -1.8326 6.0893 0.0000 0.0000 0.0000 -29.1194 3.2290 -0.2661 1.0800 6.6056 18.5522 -0.0181 -15.7771 -10.8912 0.1138 2.1755 5.9908 0.0000 0.0000 0.0000 13.2943 16.9797 -41.3503 -4.4929 -12.7889 38.5835 -0.6130 6.5333 -14.0102 -0.0983 2.0221 -5.5668 -4.7915 -0.3478 -0.9028 0.0738 -0.4913 -2.8428 2.7670 -0.1383 -2.3810 -1.7831 0.9207 -6.9812 3.0541 0.9972 15.8628 1.3294 0.6050 5.9157 -0.0000 -0.0000 0.0000 -85.3200 -20.1585 49.3172 26.4195 -37.6199 -9.1425 -0.0000 0.0000 -15.7443 26.8971 -16.9639 -8.4189 -7.1250 0.0000 -0.0000 -0.6442 11.0977 0.5082 -0.0000 -0.0000 0.0000 89.9874 -24.5616 12.1170 -12.5853 20.6765 -2.3048 0.0000 0.0000 7.1465 -23.9492 -29.3795 12.2928 7.1250 -0.0000 -0.0000 8.3674 -61.4220 -3.3586
7.6327 15.2805 -34.6002 3.9730 -1.3102 6.0335 0.0000 0.0000 0.0000 -28.8878 4.0505 0.7035 0.9991 6.3608 17.8350 -0.1220 -16.3891 -10.2326 0.1104 2.1423 5.8992 0.0000 0.0000 0.0000 12.8902 17.2246 -41.7436 -4.1375 -12.3412 36.9499 -0.5539 6.0319 -13.2983 -0.1534 2.5241 -6.9565 -4.6710 -0.4975 -0.8360 0.1307 -0.6931 -2.8595 2.7609 -0.2399 -2.4192 -1.8923 0.8663 -6.9323 3.0552 0.9365 15.8710 1.3433 0.5689 5.9107 0.0000 0.0000 0.0000 -85.0679 -20.7119 50.1035 27.0389 -38.2162 -9.5232 -0.0000 0.0000 -16.3266 26.4379 -17.0612 -8.2999 -7.1250 0.0000 -0.0000 -0.9563 11.0630 0.7551 0.0000 0.0000 0.0000 90.1772 -24.9572 11.9489 -12.3848 20.3792 -2.2345 0.0000 0.0000 6.9638 -26.4439 -27.2504 12.8292 7.1250 -0.0000 -0.0000 4.4098 -59.8346 -1.5986
7.6346 15.2711 -34.4193 3.5338 -0.9564 6.0022 0.0000 0.0000 0.0000 -28.1923 5.1393 1.6580 0.8895 6.0115 16.8179 -0.1691 -16.5896 -9.8777 0.0250 1.0200 2.8038 0.0000 0.0000 0.0000 13.0873 17.4061 -42.0823 -3.8209 -11.9181 35.4430 -0.5044 5.7609 -12.6862 -0.1447 2.4518 -6.7559 -4.1430 -0.4804 -0.9300 0.2537 -0.6604 -2.8853 2.5904 -0.2339 -2.3975 -1.8219 0.7024 -6.7962 2.9628 0.7160 15.9161 1.2866 0.4585 5.9080 -0.0000 -0.0000 0.0000 -85.0577 -21.2715 51.0593 27.5889 -38.7350 -9.8654 -0.0000 0.0000 -16.8041 26.0847 -16.9377 -8.1171 -7.1250 0.0000 -0.0000 -1.1774 11.2521 0.9252 -0.0000 -0.0000 0.0000 90.5430 -25.4021 11.1826 -12.5170 20.5754 -2.2807 0.0000 0.0000 7.5422 -25.5159 -28.1481 12.6899 7.1250 -0.0000 -0.0000 5.8976 -60.5453 -2.2398
7.6304 15.2355 -34.2458 3.2657 -0.7669 6.0351 0.0000 0.0000 0.0000 -27.6898 6.0060 2.8413 0.7614 5.5727 15.5494 -0.2858 -16.9054 -8.8271 0.0721 1.7320 4.7655 0.0000 0.0000 0.0000 13.0171 17.9276 -42.5443 -3.5379 -11.5187 34.0497 -0.4799 5.6333 -12.3739 -0.1274 2.3006 -6.3373 -3.9314 -0.4421 -0.8816 0.3677 -0.6104 -3.0099 2.5898 -0.2071 -2.5575 -1.5293 0.6647 -6.5531 2.8824 0.6366 15.9488 1.2060 0.4299 5.8799 -0.0000 -0.0000 0.0000 -85.2531 -21.7524 51.6977 27.9052 -39.0289 -10.0640 -0.0000 0.0000 -16.9501 26.0829 -17.2826 -8.2745 -7.1250 0.0000 -0.0000 -1.2113 10.8765 0.9612 -0.0000 -0.0000 0.0000 90.6911 -25.8094 10.1202 -12.7917 20.9812 -2.3782 0.0000 0.0000 10.1843 -20.7235 -31.1105 11.0609 7.1250 -0.0000 -0.0000 13.1977 -62.3352 -5.6137
7.6293 15.2111 -34.0631 3.7987 -0.4492 6.0439 0.0000 0.0000 0.0000 -28.0800 6.4245 4.3169 0.6343 5.0957 14.1816 -0.2879 -16.8342 -8.7365 0.0502 1.4463 3.9777 0.0000 0.0000 0.0000 12.1832 17.8771 -43.1310 -3.2793 -11.1340 32.7330 -0.4499 5.8875 -12.0193 -0.1610 2.5850 -7.1255 -4.4556 -0.5595 -0.9224 0.3093 -0.7715 -3.0796 2.8257 -0.2739 -2.5914 -1.5097 0.7110 -6.2551 2.8936 0.6964 15.7504 1.2069 0.4585 5.7648 -0.0000 -0.0000 0.0000 -85.2248 -22.1552 52.3941 28.3815 -39.4651 -10.3653 -0.0000 0.0000 -17.5010 26.4626 -17.6341 -8.5752 -7.1250 0.0000 -0.0000 -0.9964 10.4332 0.7996 -0.0000 -0.0000 0.0000 90.6227 -26.2530 11.0850 -12.5522 20.6275 -2.2931 0.0000 0.0000 6.9312 -24.3719 -28.0685 12.0332 7.1250 -0.0000 -0.0000 7.1666 -60.1827 -2.6625
7.6333 15.2063 -33.8703 4.4405 0.0325 6.0472 0.0000 0.0000 0.0000 -28.5474 7.0446 5.9028 0.4814 4.4495 12.3449 -0.2397 -16.3576 -8.8700 0.0011 -0.2103 -0.5779 0.0000 0.0000 0.0000 11.3837 17.2399 -43.8178 -3.0642 -10.7983 31.6027 -0.3962 6.5143 -11.4156 -0.1399 2.4105 -6.6417 -4.9815 -0.7738 -1.2294 0.2365 -1.0429 -3.0029 3.0432 -0.4063 -2.3121 -1.6144 0.6767 -6.1130 2.7851 0.6829 15.4571 1.1860 0.4365 5.6490 0.0000 0.0000 0.0000 -85.0998 -22.5379 52.8686 29.1172 -40.1246 -10.8362 -0.0000 0.0000 -18.0853 26.5174 -17.5194 -8.5421 -7.1250 0.0000 -0.0000 -0.9490 10.5498 0.7593 0.0000 0.0000 0.0000 90.4534 -26.5195 11.5990 -12.5386 20.6075 -2.2883 0.0000 0.0000 6.1186 -25.7913 -27.3528 12.5183 7.1250 -0.0000 -0.0000 5.2025 -59.7836 -1.8805
